HIERARCHY
ROOT Hips
{
	OFFSET 0.000000 83.214638 0.000000
	CHANNELS 6 Xposition Yposition Zposition Xrotation Yrotation Zrotation
	JOINT Pelvis
	{
		OFFSET 0.000000 0.000000 0.000000
		CHANNELS 3 Xrotation Yrotation Zrotation
		JOINT LeftUpLeg
		{
			OFFSET 8.479700 -4.795502 -0.379100
			CHANNELS 3 Xrotation Yrotation Zrotation
			JOINT LeftLeg
			{
				OFFSET 0.024144 -32.555107 0.112900
				CHANNELS 3 Xrotation Yrotation Zrotation
				JOINT LeftFoot
				{
					OFFSET -0.024144 -32.638630 -3.012600
					CHANNELS 3 Xrotation Yrotation Zrotation
					JOINT LeftToeBase
					{
						OFFSET 0.970200 -13.225400 11.864200
						CHANNELS 3 Xrotation Yrotation Zrotation
						End Site
						{
							OFFSET 0.000000 12.319262 0.000000
						}
					}
					JOINT LFootTongue
					{
						OFFSET 1.142400 -1.059800 6.665200
						CHANNELS 3 Xrotation Yrotation Zrotation
						End Site
						{
							OFFSET 0.000000 12.319262 0.000000
						}
					}
				}
				JOINT LeftPantLeg
				{
					OFFSET 0.918482 -16.533964 -2.284700
					CHANNELS 3 Xrotation Yrotation Zrotation
					End Site
					{
						OFFSET 0.350399 24.744368 0.000000
					}
				}
			}
		}
		JOINT RightUpLeg
		{
			OFFSET -8.479700 -4.795502 -0.379100
			CHANNELS 3 Xrotation Yrotation Zrotation
			JOINT RightLeg
			{
				OFFSET -0.023144 -32.555092 0.112900
				CHANNELS 3 Xrotation Yrotation Zrotation
				JOINT RightFoot
				{
					OFFSET 0.023144 -32.638641 -3.012700
					CHANNELS 3 Xrotation Yrotation Zrotation
					JOINT RightToeBase
					{
						OFFSET -0.970200 -13.225400 11.864200
						CHANNELS 3 Xrotation Yrotation Zrotation
						End Site
						{
							OFFSET 0.000000 12.319244 0.000000
						}
					}
					JOINT RFootTongue
					{
						OFFSET -1.142200 -1.059800 6.665200
						CHANNELS 3 Xrotation Yrotation Zrotation
						End Site
						{
							OFFSET 0.000000 12.319243 0.000000
						}
					}
				}
				JOINT RightPantLeg
				{
					OFFSET -0.919482 -16.533978 -2.284800
					CHANNELS 3 Xrotation Yrotation Zrotation
					End Site
					{
						OFFSET -0.350400 24.744419 0.000000
					}
				}
			}
		}
	}
	JOINT Spine
	{
		OFFSET 0.000000 7.722000 1.166200
		CHANNELS 3 Xrotation Yrotation Zrotation
		JOINT Spine1
		{
			OFFSET 0.000000 12.024101 0.248800
			CHANNELS 3 Xrotation Yrotation Zrotation
			JOINT Spine2
			{
				OFFSET 0.000000 11.502998 -0.491200
				CHANNELS 3 Xrotation Yrotation Zrotation
				JOINT Neck
				{
					OFFSET 0.000000 18.430702 -3.123100
					CHANNELS 3 Xrotation Yrotation Zrotation
					JOINT Head
					{
						OFFSET 0.000000 9.051102 1.034000
						CHANNELS 3 Xrotation Yrotation Zrotation
						JOINT HairB
						{
							OFFSET 0.208400 24.786102 24.822300
							CHANNELS 3 Xrotation Yrotation Zrotation
							End Site
							{
								OFFSET 0.000000 32.263779 0.000000
							}
						}
						JOINT HairA
						{
							OFFSET -7.081100 24.428299 23.196600
							CHANNELS 3 Xrotation Yrotation Zrotation
							End Site
							{
								OFFSET 0.000000 32.263779 0.000000
							}
						}
						JOINT Hat
						{
							OFFSET 16.728800 15.048294 -15.439601
							CHANNELS 3 Xrotation Yrotation Zrotation
							End Site
							{
								OFFSET 0.000000 32.263779 0.000000
							}
						}
					}
				}
				JOINT LeftShoulder
				{
					OFFSET 6.197800 13.665199 -4.064700
					CHANNELS 3 Xrotation Yrotation Zrotation
					JOINT LeftArm
					{
						OFFSET 7.778100 -0.187103 -1.709300
						CHANNELS 3 Xrotation Yrotation Zrotation
						JOINT LeftForeArm
						{
							OFFSET 22.049376 0.000000 0.000000
							CHANNELS 3 Xrotation Yrotation Zrotation
							JOINT LeftHand
							{
								OFFSET 23.009392 0.000000 0.000000
								CHANNELS 3 Xrotation Yrotation Zrotation
								JOINT LeftHandThumb1
								{
									OFFSET 3.507191 -2.063065 3.133727
									CHANNELS 3 Xrotation Yrotation Zrotation
									JOINT LeftHandThumb2
									{
										OFFSET 3.101337 -1.790558 1.790558
										CHANNELS 3 Xrotation Yrotation Zrotation
										JOINT LeftHandThumb3
										{
											OFFSET 3.058640 -1.765907 1.765906
											CHANNELS 3 Xrotation Yrotation Zrotation
											End Site
											{
												OFFSET -0.415260 3.926476 -0.049563
											}
										}
									}
								}
								JOINT LeftHandIndex1
								{
									OFFSET 11.334419 -0.901459 3.706815
									CHANNELS 3 Xrotation Yrotation Zrotation
									JOINT LeftHandIndex2
									{
										OFFSET 3.283112 0.000000 0.000000
										CHANNELS 3 Xrotation Yrotation Zrotation
										JOINT LeftHandIndex3
										{
											OFFSET 3.323853 0.000000 0.000000
											CHANNELS 3 Xrotation Yrotation Zrotation
											End Site
											{
												OFFSET -1.135597 3.097809 0.402452
											}
										}
									}
								}
								JOINT LeftHandMiddle1
								{
									OFFSET 11.335861 0.000000 0.000000
									CHANNELS 3 Xrotation Yrotation Zrotation
									JOINT LeftHandMiddle2
									{
										OFFSET 3.410492 0.000000 0.000000
										CHANNELS 3 Xrotation Yrotation Zrotation
										JOINT LeftHandMiddle3
										{
											OFFSET 3.312172 0.000000 0.000000
											CHANNELS 3 Xrotation Yrotation Zrotation
											End Site
											{
												OFFSET -1.150200 3.080154 0.400270
											}
										}
									}
								}
								JOINT LeftHandRing1
								{
									OFFSET 11.514786 -0.013176 -3.003090
									CHANNELS 3 Xrotation Yrotation Zrotation
									JOINT LeftHandRing2
									{
										OFFSET 3.053307 0.000000 0.000000
										CHANNELS 3 Xrotation Yrotation Zrotation
										JOINT LeftHandRing3
										{
											OFFSET 3.295807 0.000000 0.000000
											CHANNELS 3 Xrotation Yrotation Zrotation
											End Site
											{
												OFFSET -1.281006 3.013344 0.375733
											}
										}
									}
								}
								JOINT LeftHandPinky1
								{
									OFFSET 10.518692 -0.960396 -5.730441
									CHANNELS 3 Xrotation Yrotation Zrotation
									JOINT LeftHandPinky2
									{
										OFFSET 2.861649 0.000000 0.000000
										CHANNELS 3 Xrotation Yrotation Zrotation
										JOINT LeftHandPinky3
										{
											OFFSET 2.863380 0.000000 0.000000
											CHANNELS 3 Xrotation Yrotation Zrotation
											End Site
											{
												OFFSET -0.843597 2.711159 0.369971
											}
										}
									}
								}
							}
							JOINT LSleeve
							{
								OFFSET 6.676277 -0.344902 -1.011730
								CHANNELS 3 Xrotation Yrotation Zrotation
								End Site
								{
									OFFSET 0.000000 14.885353 0.000000
								}
							}
						}
					}
				}
				JOINT RightShoulder
				{
					OFFSET -6.197800 13.665199 -4.064700
					CHANNELS 3 Xrotation Yrotation Zrotation
					JOINT RightArm
					{
						OFFSET -7.778100 -0.187103 -1.709300
						CHANNELS 3 Xrotation Yrotation Zrotation
						JOINT RightForeArm
						{
							OFFSET -22.049376 0.000000 0.000000
							CHANNELS 3 Xrotation Yrotation Zrotation
							JOINT RightHand
							{
								OFFSET -23.009392 0.000000 0.000000
								CHANNELS 3 Xrotation Yrotation Zrotation
								JOINT RightHandThumb1
								{
									OFFSET -3.507191 -2.063065 3.133727
									CHANNELS 3 Xrotation Yrotation Zrotation
									JOINT RightHandThumb2
									{
										OFFSET -3.101337 -1.790558 1.790558
										CHANNELS 3 Xrotation Yrotation Zrotation
										JOINT RightHandThumb3
										{
											OFFSET -3.058640 -1.765907 1.765906
											CHANNELS 3 Xrotation Yrotation Zrotation
											End Site
											{
												OFFSET 0.415260 3.926476 -0.049563
											}
										}
									}
								}
								JOINT RightHandIndex1
								{
									OFFSET -11.334419 -0.901459 3.706815
									CHANNELS 3 Xrotation Yrotation Zrotation
									JOINT RightHandIndex2
									{
										OFFSET -3.283112 0.000000 0.000000
										CHANNELS 3 Xrotation Yrotation Zrotation
										JOINT RightHandIndex3
										{
											OFFSET -3.323853 0.000000 0.000000
											CHANNELS 3 Xrotation Yrotation Zrotation
											End Site
											{
												OFFSET 1.135597 3.097809 0.402452
											}
										}
									}
								}
								JOINT RightHandMiddle1
								{
									OFFSET -11.335861 0.000000 0.000000
									CHANNELS 3 Xrotation Yrotation Zrotation
									JOINT RightHandMiddle2
									{
										OFFSET -3.410492 0.000000 0.000000
										CHANNELS 3 Xrotation Yrotation Zrotation
										JOINT RightHandMiddle3
										{
											OFFSET -3.312172 0.000000 0.000000
											CHANNELS 3 Xrotation Yrotation Zrotation
											End Site
											{
												OFFSET 1.150200 3.080154 0.400270
											}
										}
									}
								}
								JOINT RightHandRing1
								{
									OFFSET -11.514786 -0.013176 -3.003090
									CHANNELS 3 Xrotation Yrotation Zrotation
									JOINT RightHandRing2
									{
										OFFSET -3.053307 0.000000 0.000000
										CHANNELS 3 Xrotation Yrotation Zrotation
										JOINT RightHandRing3
										{
											OFFSET -3.295807 0.000000 0.000000
											CHANNELS 3 Xrotation Yrotation Zrotation
											End Site
											{
												OFFSET 1.281006 3.013344 0.375733
											}
										}
									}
								}
								JOINT RightHandPinky1
								{
									OFFSET -10.518692 -0.960396 -5.730441
									CHANNELS 3 Xrotation Yrotation Zrotation
									JOINT RightHandPinky2
									{
										OFFSET -2.861649 0.000000 0.000000
										CHANNELS 3 Xrotation Yrotation Zrotation
										JOINT RightHandPinky3
										{
											OFFSET -2.863380 0.000000 0.000000
											CHANNELS 3 Xrotation Yrotation Zrotation
											End Site
											{
												OFFSET 0.843597 2.711159 0.369971
											}
										}
									}
								}
							}
							JOINT RSleeve
							{
								OFFSET -6.676277 -0.344902 -1.011730
								CHANNELS 3 Xrotation Yrotation Zrotation
								End Site
								{
									OFFSET 0.000000 14.885353 0.000000
								}
							}
						}
					}
				}
				JOINT Backpack
				{
					OFFSET 0.000000 -2.471497 36.677502
					CHANNELS 3 Xrotation Yrotation Zrotation
					End Site
					{
						OFFSET 0.000000 20.427315 0.000000
					}
				}
				JOINT Hood
				{
					OFFSET 0.000000 18.754097 -10.431000
					CHANNELS 3 Xrotation Yrotation Zrotation
					JOINT Hood1
					{
						OFFSET 0.000000 -5.011002 -7.685901
						CHANNELS 3 Xrotation Yrotation Zrotation
						End Site
						{
							OFFSET 0.000000 9.175140 0.000000
						}
					}
				}
				JOINT LHoodieString
				{
					OFFSET 5.250500 16.397697 3.089900
					CHANNELS 3 Xrotation Yrotation Zrotation
					JOINT LHoodieString1
					{
						OFFSET 0.257700 -6.364304 3.694600
						CHANNELS 3 Xrotation Yrotation Zrotation
						JOINT LHoodieString2
						{
							OFFSET 0.000000 -9.643799 2.679100
							CHANNELS 3 Xrotation Yrotation Zrotation
							End Site
							{
								OFFSET 0.000000 10.009018 0.000000
							}
						}
					}
				}
				JOINT RHoodieString
				{
					OFFSET -5.250500 16.397697 3.089900
					CHANNELS 3 Xrotation Yrotation Zrotation
					JOINT RHoodieString1
					{
						OFFSET -0.257700 -6.364304 3.694600
						CHANNELS 3 Xrotation Yrotation Zrotation
						JOINT RHoodieString2
						{
							OFFSET 0.000000 -9.643799 2.679100
							CHANNELS 3 Xrotation Yrotation Zrotation
							End Site
							{
								OFFSET 0.000000 10.009018 0.000000
							}
						}
					}
				}
			}
			JOINT LBackpack_Strap
			{
				OFFSET 15.223200 -7.719803 -6.610900
				CHANNELS 3 Xrotation Yrotation Zrotation
				End Site
				{
					OFFSET 0.000000 16.040596 0.000000
				}
			}
			JOINT RBackpack_Strap
			{
				OFFSET -15.223000 -7.719803 -6.610900
				CHANNELS 3 Xrotation Yrotation Zrotation
				End Site
				{
					OFFSET 0.000000 16.040596 0.000000
				}
			}
		}
	}
	JOINT BoyFacialAnim_Joint
	{
		OFFSET 1.000000 -82.208099 -1.550900
		CHANNELS 3 Xrotation Yrotation Zrotation
		End Site
		{
			OFFSET 0.000000 30.012791 0.000000
		}
	}
}
MOTION
Frames: 4
Frame Time: 0.033333
0.130832 81.724792 1.726244 3.408668 2.857099 0.956180 0.000000 0.000000 -0.000000 -9.348291 9.739878 10.204249 11.444253 9.239345 1.132158 0.638630 18.894912 -8.685572 0.000000 0.000001 -0.000000 0.000000 0.000001 -0.000000 0.000000 0.000001 0.000001 -7.580275 -7.933429 -9.647479 13.535598 -9.467572 -1.561466 -2.291969 -27.760858 11.336146 -0.000000 -0.000002 -0.000000 -0.000000 -0.000002 -0.000000 -0.000000 0.000000 -0.000000 1.161123 -0.439420 1.140183 2.320693 -0.893101 -0.429785 2.326002 -0.879248 -0.429917 5.622882 0.540026 0.308426 -17.502631 2.372787 1.494932 -0.000000 -0.000000 -0.000000 -0.000000 -0.000000 -0.000000 -0.000000 -0.000000 -0.000000 -0.108433 8.751974 -11.102744 37.674726 -67.973701 -27.549942 0.000006 -20.650303 0.000008 -5.673615 -1.754425 7.765667 -1.540026 3.690189 6.142363 3.946777 7.971436 0.752866 0.000002 -0.000001 0.000002 -0.000000 -0.000002 0.000004 -0.000004 0.000002 -0.000001 -0.000001 0.000000 -0.000004 0.000002 -0.001923 0.015981 0.000007 0.001919 -0.015995 0.000001 0.000000 -0.000001 0.000001 -0.000010 -0.000007 -0.000003 0.000007 0.000006 0.000001 -0.000000 -0.000000 -0.018067 4.054254 0.511082 -0.018103 -4.054255 -0.511083 0.000000 -0.000001 -0.000002 -0.000000 -0.000000 0.000001 2.859946 10.867115 10.772594 20.008933 42.695284 49.851068 -0.000008 19.305912 0.000004 -27.522792 -7.863482 -0.983680 -1.849254 -3.581761 -6.586149 4.645042 -8.656782 -0.231286 0.000001 0.000001 0.000002 0.000000 0.000002 -0.000009 0.000003 0.000000 0.000018 -0.000003 0.000001 0.000002 0.000010 -0.000004 -0.000001 0.000007 0.000004 0.000008 0.000007 -0.000000 0.000001 0.000006 0.000008 0.000011 0.000001 -0.000008 -0.000004 0.000000 -0.000001 0.000002 0.000007 0.000004 -0.000004 -0.000001 -0.000005 0.000010 -0.000001 -0.000002 -0.000002 -0.000002 -0.000000 0.000000 0.000000 -0.000000 -0.000000 0.000000 -0.000000 -0.000000 0.000000 -0.000000 -0.000000 0.000000 -0.000000 -0.000000 0.000000 -0.000000 -0.000000 -0.000001 -0.000000 -0.000000 0.000000 -0.000000 -0.000000 0.000000 -0.000000 -0.000000 -0.000001 -0.000000 -0.000000 -0.000000 -0.000000 -0.000000 -0.000000 -0.000000 -0.000000 0.000000 0.000000 -0.000000 
0.092082 81.720917 1.795233 3.773330 2.929629 0.938987 0.000000 -0.000000 -0.000000 -9.631829 9.674042 10.216460 11.303387 9.253694 1.136712 0.734671 18.951816 -8.743794 -0.000000 0.000002 -0.000001 -0.000000 0.000002 -0.000000 0.000000 0.000002 0.000002 -7.933073 -7.714790 -9.598768 13.674403 -9.458784 -1.576114 -2.376075 -28.033168 11.203356 -0.000000 -0.000001 -0.000000 -0.000000 -0.000001 -0.000000 -0.000000 0.000002 0.000001 1.106925 -0.452208 1.133127 2.211987 -0.931002 -0.511988 2.217658 -0.917514 -0.512070 5.693365 0.538478 0.450176 -17.029041 2.377055 1.570147 -0.000000 0.000000 0.000000 -0.000000 0.000000 0.000000 -0.000000 0.000000 0.000000 -0.103732 8.607951 -10.780335 38.292322 -68.191796 -27.041474 0.000001 -20.619679 0.000004 -5.832466 -1.770431 8.099196 -1.540039 3.690179 6.142358 3.946781 7.971438 0.752874 -0.000001 -0.000001 0.000002 -0.000001 -0.000000 0.000004 -0.000002 0.000006 -0.000004 0.000002 -0.000000 -0.000002 0.000001 -0.001922 0.015977 0.000006 0.001921 -0.015993 -0.000001 0.000001 -0.000001 0.000002 -0.000008 -0.000012 -0.000001 0.000011 0.000007 0.000000 -0.000001 -0.000002 -0.018068 4.054257 0.511079 -0.018105 -4.054257 -0.511082 0.000002 0.000001 -0.000003 0.000000 0.000002 -0.000000 2.948150 11.097556 10.849954 20.393642 42.082961 49.682533 0.000003 18.604897 -0.000001 -26.700345 -4.835111 -1.053535 -1.849260 -3.581774 -6.586132 4.645037 -8.656782 -0.231290 -0.000004 -0.000002 -0.000004 -0.000003 0.000002 -0.000009 0.000009 0.000000 0.000021 0.000001 0.000000 0.000002 0.000008 -0.000005 -0.000002 0.000003 0.000005 0.000011 -0.000000 0.000001 -0.000000 0.000006 0.000008 0.000011 -0.000002 -0.000010 -0.000003 -0.000001 -0.000001 0.000002 0.000003 0.000002 -0.000001 -0.000003 -0.000004 0.000005 -0.000004 -0.000000 -0.000002 0.000001 -0.000000 -0.000001 -0.000001 0.000000 -0.000000 -0.000001 0.000000 -0.000000 -0.000001 0.000000 -0.000000 -0.000001 0.000000 -0.000000 -0.000001 0.000000 0.000000 -0.000001 0.000000 0.000000 -0.000001 0.000000 -0.000000 -0.000001 0.000000 0.000000 -0.000001 0.000000 0.000000 0.000000 -0.000000 0.000000 0.000000 -0.000000 0.000000 0.000000 -0.000000 -0.000000 
0.058980 81.720711 1.870925 3.947565 2.964794 0.910779 -0.000000 -0.000000 -0.000000 -9.745092 9.669197 10.264654 11.235925 9.266349 1.135429 0.746259 18.880671 -8.739454 0.000000 0.000002 -0.000000 0.000000 0.000002 -0.000000 -0.000000 0.000001 0.000000 -8.079781 -7.618270 -9.522085 13.776199 -9.447676 -1.580183 -2.496332 -28.144407 11.038505 -0.000000 0.000002 -0.000000 -0.000000 0.000002 -0.000000 0.000000 0.000002 -0.000000 1.091007 -0.466499 1.119256 2.179962 -0.963330 -0.515555 2.185800 -0.950071 -0.515628 5.737671 0.535709 0.482501 -17.903382 2.357381 1.574593 0.000000 -0.000000 0.000000 0.000000 -0.000000 0.000000 0.000000 -0.000000 0.000000 -0.102342 8.553072 -10.657927 38.267204 -68.229649 -27.080348 0.000001 -20.612299 0.000001 -5.927916 -1.751460 8.115749 -1.540049 3.690165 6.142347 3.946778 7.971440 0.752865 -0.000000 -0.000001 0.000002 -0.000001 -0.000002 0.000006 -0.000001 0.000003 -0.000001 -0.000001 0.000000 -0.000005 0.000002 -0.001924 0.015984 0.000001 0.001918 -0.015993 0.000002 -0.000001 0.000002 0.000003 -0.000009 -0.000011 -0.000001 0.000010 0.000003 -0.000000 0.000003 -0.000009 -0.018066 4.054256 0.511084 -0.018102 -4.054255 -0.511081 -0.000002 0.000001 0.000002 -0.000001 0.000002 -0.000002 2.985170 11.194500 10.882435 20.354527 42.030529 49.656602 -0.000013 18.618812 0.000015 -26.505814 -3.916307 -1.170662 -1.849258 -3.581771 -6.586109 4.645043 -8.656782 -0.231289 0.000000 -0.000001 -0.000001 0.000001 0.000002 -0.000010 0.000008 0.000000 0.000019 -0.000003 0.000001 0.000002 0.000010 -0.000004 0.000001 0.000005 0.000003 0.000006 0.000005 0.000001 -0.000004 0.000006 0.000008 0.000011 -0.000001 -0.000010 -0.000001 -0.000001 0.000003 0.000001 0.000005 0.000002 -0.000001 -0.000001 -0.000004 0.000005 -0.000006 0.000001 -0.000001 0.000000 -0.000000 -0.000001 -0.000000 0.000000 0.000000 -0.000000 0.000000 0.000000 -0.000000 0.000000 0.000000 -0.000000 0.000000 0.000000 -0.000000 0.000000 -0.000000 -0.000000 0.000000 0.000000 -0.000000 0.000000 0.000000 -0.000000 0.000000 -0.000000 -0.000000 0.000000 0.000000 0.000001 0.000000 0.000000 0.000001 0.000000 0.000000 -0.000000 -0.000000 -0.000000 
0.030459 81.718842 1.967968 4.082379 2.928367 0.885722 0.000000 0.000000 -0.000000 -9.782320 9.680857 10.311741 11.187837 9.272140 1.133971 0.711463 18.842883 -8.734988 0.000000 0.000000 0.000000 0.000000 0.000000 0.000000 -0.000000 0.000001 0.000001 -8.161485 -7.566534 -9.451266 13.824200 -9.440285 -1.578597 -2.611835 -28.155773 10.918847 -0.000000 -0.000002 -0.000000 -0.000000 -0.000002 -0.000000 -0.000000 0.000001 -0.000000 1.058728 -0.468303 1.106982 2.115371 -0.968804 -0.492690 2.121185 -0.956070 -0.492746 5.729210 0.544778 0.451869 -18.584405 2.356920 1.614400 0.000000 0.000000 0.000000 0.000000 0.000000 0.000000 0.000000 0.000000 0.000000 -0.102871 8.569610 -10.693857 37.795497 -68.040111 -27.593640 0.000005 -20.610840 0.000000 -5.768099 -1.722945 7.984086 -1.540042 3.690186 6.142354 3.946781 7.971440 0.752867 0.000002 -0.000000 0.000002 -0.000001 -0.000001 0.000002 -0.000006 0.000000 0.000002 -0.000001 -0.000000 -0.000004 0.000001 -0.001921 0.015982 0.000006 0.001919 -0.015988 0.000000 0.000001 -0.000001 0.000003 -0.000006 -0.000012 0.000000 0.000009 0.000006 -0.000000 0.000000 -0.000000 -0.018068 4.054258 0.511081 -0.018104 -4.054255 -0.511080 -0.000001 -0.000001 0.000001 0.000002 -0.000000 0.000000 2.988334 11.193394 10.889786 20.426307 41.985951 49.707808 -0.000002 18.628436 0.000009 -26.340884 -3.239706 -1.162992 -1.849260 -3.581775 -6.586130 4.645040 -8.656781 -0.231290 -0.000003 -0.000000 -0.000001 0.000000 0.000001 -0.000012 0.000005 0.000001 0.000018 -0.000000 0.000000 0.000004 0.000009 -0.000004 -0.000001 0.000006 0.000004 0.000009 0.000004 0.000001 -0.000000 0.000007 0.000007 0.000012 -0.000004 -0.000009 -0.000005 -0.000002 -0.000000 0.000002 0.000005 0.000002 -0.000002 -0.000004 -0.000003 0.000005 -0.000003 0.000001 -0.000001 0.000000 0.000000 -0.000002 0.000001 0.000000 0.000000 0.000001 0.000000 0.000000 0.000001 0.000000 0.000000 0.000001 0.000000 0.000000 0.000001 0.000000 -0.000000 0.000000 0.000000 -0.000000 0.000001 0.000000 0.000000 0.000001 0.000000 -0.000000 0.000000 0.000000 -0.000000 0.000001 0.000000 0.000000 0.000001 0.000000 0.000000 0.000000 0.000000 -0.000000 
